<svg viewBox="0 0 27 25.0037" xmlns="http://www.w3.org/2000/svg" xmlns:xlink="http://www.w3.org/1999/xlink" width="27.000000" height="25.003662" fill="none" customFrame="#000000">
	<path id="+30sec" d="M26.9975 9.64667C26.9979 9.65716 26.9982 9.66763 26.9984 9.67807C26.9986 9.68247 26.9988 9.68688 26.999 9.69129C27.0289 10.4785 26.4143 11.1394 25.6261 11.1675L16.9431 11.4771C16.1549 11.5052 15.4917 10.8898 15.4617 10.1026C15.4318 9.31537 16.0464 8.65444 16.8346 8.62634L22.3195 8.43081C22.1841 8.23041 22.0424 8.03578 21.8947 7.84705C20.6654 6.27641 19.0227 5.11476 17.1922 4.4373C14.5577 3.4586 11.7672 3.56049 9.34148 4.51569C6.72628 5.54182 4.7593 7.46057 3.66079 9.76163C2.47384 12.2398 2.39013 14.9417 3.21061 17.3489C3.84843 19.2282 4.99173 20.8108 6.44592 22.0038C6.65535 22.1756 6.87122 22.3393 7.09297 22.4947C7.6928 22.915 7.93476 23.7183 7.57424 24.3559C7.22724 24.9695 6.45046 25.2009 5.86096 24.8143C5.48115 24.5652 5.11824 24.2997 4.7727 24.0193C2.83246 22.4445 1.43963 20.3994 0.676867 18.1576C-0.430214 14.9174 -0.134901 11.5522 1.23916 8.67789C2.71582 5.57881 5.30526 3.31528 8.3366 2.12339C11.6015 0.835057 15.09 0.892661 18.1455 2.02528C20.5097 2.89837 22.4691 4.35414 23.918 6.15844L23.7417 1.52303C23.7108 0.71138 24.3445 0.0299229 25.1572 0.000953798C25.9698 -0.0280153 26.6536 0.606474 26.6845 1.41812L26.9975 9.64667ZM21.4913 23.7627C21.8964 23.935 22.3382 24.0211 22.8165 24.0211C23.2858 24.0211 23.7208 23.9382 24.1215 23.7724C24.2945 23.7009 24.4611 23.6138 24.6212 23.5114C24.6802 23.4738 24.7378 23.4342 24.794 23.3928C25.2455 23.0598 25.6059 22.6032 25.8751 22.0231C26.1798 21.3707 26.3322 20.5963 26.3322 19.6998C26.3322 18.8053 26.1798 18.0319 25.8751 17.3795C25.6059 16.7994 25.2455 16.3428 24.794 16.0098C24.7378 15.9684 24.6802 15.9289 24.6212 15.8913C24.4611 15.7888 24.2945 15.7018 24.1215 15.6302C23.7208 15.4644 23.2858 15.3815 22.8165 15.3815C22.3382 15.3815 21.8964 15.4676 21.4913 15.6399C21.3274 15.7096 21.1696 15.7934 21.0177 15.8913C20.9776 15.9171 20.938 15.9439 20.8992 15.9716C20.4276 16.3076 20.0512 16.7769 19.7697 17.3795C19.465 18.0319 19.3126 18.8053 19.3126 19.6998C19.3126 20.5963 19.465 21.3707 19.7697 22.0231C20.0512 22.6257 20.4276 23.095 20.8992 23.431C20.938 23.4587 20.9776 23.4855 21.0177 23.5114C21.1696 23.6092 21.3274 23.693 21.4913 23.7627ZM17.6812 19.7614C17.273 19.3297 16.6812 19.0661 15.9058 18.9704L17.9449 16.5446L17.9449 15.5016L12.2202 15.5016L12.2202 16.8082L16.0376 16.8082L14.1304 19.0758L14.1304 20.1452L14.898 20.1452C15.5132 20.1452 15.9702 20.2555 16.2691 20.4762C16.3998 20.5713 16.5021 20.6827 16.576 20.8106C16.6722 20.977 16.7202 21.1712 16.7202 21.3932C16.7202 21.5923 16.6796 21.7702 16.5982 21.9271C16.5191 22.0796 16.4016 22.2122 16.2456 22.3248C15.9312 22.5514 15.4976 22.6647 14.9449 22.6647C14.6987 22.6647 14.4562 22.644 14.2172 22.6026C14.0068 22.5661 13.7991 22.5136 13.5943 22.445C13.1587 22.2965 12.7886 22.0934 12.4839 21.8356L11.813 23.0485C12.2056 23.3532 12.6792 23.5914 13.2339 23.7633C13.3336 23.7941 13.434 23.8221 13.5351 23.8474C13.9984 23.9632 14.4761 24.0211 14.9683 24.0211C15.689 24.0211 16.2993 23.903 16.7993 23.6666C17.2877 23.4358 17.6558 23.1277 17.9038 22.7422C17.9098 22.733 17.9156 22.7238 17.9214 22.7145C18.0157 22.5622 18.0921 22.4036 18.1506 22.2386C18.2459 21.9698 18.2935 21.6841 18.2935 21.3815C18.2935 20.9548 18.2051 20.575 18.0283 20.2422C17.9365 20.0692 17.8208 19.909 17.6812 19.7614ZM23.6043 22.4875C23.3717 22.6056 23.1091 22.6647 22.8165 22.6647C22.5369 22.6647 22.2844 22.6093 22.0593 22.4985C21.808 22.3748 21.5907 22.1822 21.4074 21.9205C21.0597 21.4245 20.8859 20.6842 20.8859 19.6998C20.8859 18.7174 21.0597 17.9782 21.4074 17.4821C21.5907 17.2204 21.808 17.0278 22.0593 16.9041C22.2844 16.7933 22.5369 16.7379 22.8165 16.7379C23.1091 16.7379 23.3717 16.797 23.6043 16.9151C23.8484 17.0391 24.0594 17.2281 24.2374 17.4821C24.5871 17.9782 24.7619 18.7174 24.7619 19.6998C24.7619 20.6842 24.5871 21.4245 24.2374 21.9205C24.0594 22.1746 23.8484 22.3635 23.6043 22.4875Z" fill="rgb(255,255,255)" fill-rule="evenodd" />
</svg>
