<svg viewBox="0 0 27 25.0037" xmlns="http://www.w3.org/2000/svg" xmlns:xlink="http://www.w3.org/1999/xlink" width="27.000000" height="25.003662" fill="none" customFrame="#000000">
	<path id="-15sec" d="M26.9975 9.64667C26.9979 9.65716 26.9982 9.66763 26.9984 9.67807C26.9986 9.68247 26.9988 9.68688 26.999 9.69129C27.0289 10.4785 26.4143 11.1394 25.6261 11.1675L16.9431 11.4771C16.1549 11.5052 15.4917 10.8898 15.4617 10.1026C15.4318 9.31537 16.0464 8.65444 16.8346 8.62634L22.3195 8.43081C22.1841 8.23041 22.0424 8.03578 21.8947 7.84705C20.6654 6.27641 19.0227 5.11476 17.1922 4.4373C14.5577 3.4586 11.7672 3.56049 9.34148 4.51569C6.72628 5.54182 4.7593 7.46057 3.66079 9.76163C2.47384 12.2398 2.39013 14.9417 3.21061 17.3489C3.84843 19.2282 4.99173 20.8108 6.44592 22.0038C6.65535 22.1756 6.87122 22.3393 7.09297 22.4947C7.6928 22.915 7.93476 23.7183 7.57424 24.3559C7.22724 24.9695 6.45046 25.2009 5.86096 24.8143C5.48115 24.5652 5.11824 24.2997 4.7727 24.0193C2.83246 22.4445 1.43963 20.3994 0.676867 18.1576C-0.430214 14.9174 -0.134901 11.5522 1.23916 8.67789C2.71582 5.57881 5.30526 3.31528 8.3366 2.12339C11.6015 0.835057 15.09 0.892661 18.1455 2.02528C20.5097 2.89837 22.4691 4.35414 23.918 6.15844L23.7417 1.52303C23.7108 0.71138 24.3445 0.0299229 25.1572 0.000953798C25.9698 -0.0280153 26.6536 0.606474 26.6845 1.41812L26.9975 9.64667ZM13.7799 19.4449C14.3483 18.9839 15.2242 18.7535 16.4078 18.7535L17.2106 18.7535L17.0318 16.8082L13.4195 16.8082L13.4195 15.5015L18.3502 15.5015L18.7838 20.0718L16.7565 20.0718C15.9322 20.0718 15.3502 20.1822 15.0104 20.4029C14.8615 20.499 14.745 20.6152 14.661 20.7513C14.5521 20.9278 14.4977 21.1378 14.4977 21.3814C14.4977 21.5939 14.5422 21.7822 14.6314 21.9463C14.7102 22.0914 14.8238 22.2175 14.9723 22.3248C15.2887 22.5513 15.7233 22.6646 16.276 22.6646C16.5221 22.6646 16.7647 22.6439 17.0037 22.6025C17.2141 22.566 17.4217 22.5135 17.6266 22.4449C18.0621 22.2964 18.4352 22.0933 18.7457 21.8355L19.4078 23.0484C19.0231 23.3531 18.5514 23.5914 17.9928 23.7632C17.8549 23.8055 17.7157 23.8426 17.5754 23.8745C17.1456 23.9722 16.7046 24.021 16.2526 24.021C15.524 24.021 14.9117 23.9009 14.4156 23.6607C13.9584 23.4393 13.6066 23.1466 13.3601 22.7825C13.3391 22.7516 13.3189 22.7201 13.2994 22.688C13.2206 22.5583 13.1543 22.4238 13.1005 22.2844C12.9851 21.9852 12.9274 21.6637 12.9274 21.3199C12.9274 20.8404 13.0318 20.4219 13.2406 20.0644C13.3763 19.8321 13.5561 19.6256 13.7799 19.4449ZM20.7044 23.9009L20.7044 15.5015L24.0384 15.5015L24.0384 16.8082L22.263 16.8082L22.263 23.9009L20.7044 23.9009Z" fill="rgb(255,255,255)" fill-rule="evenodd" transform="matrix(-1,0,0,1,27,0)" />
</svg>
