<svg viewBox="0 0 365 365" xmlns="http://www.w3.org/2000/svg" xmlns:xlink="http://www.w3.org/1999/xlink" width="365.000000" height="365.000000" fill="none" customFrame="#000000">
	<path id="Pause" d="M182.5 0C283.292 0 365 81.708 365 182.5C365 283.292 283.292 365 182.5 365C81.708 365 0 283.292 0 182.5C0 81.708 81.708 0 182.5 0ZM162.403 103.25C162.403 96.6226 157.031 91.25 150.403 91.25L132.037 91.25C125.41 91.25 120.037 96.6226 120.037 103.25L120.037 261.75C120.037 268.377 125.41 273.75 132.037 273.75L150.403 273.75C157.031 273.75 162.403 268.377 162.403 261.75L162.403 103.25ZM235.135 91.25C241.763 91.25 247.135 96.6226 247.135 103.25L247.135 261.75C247.135 268.377 241.763 273.75 235.135 273.75L216.769 273.75C210.142 273.75 204.769 268.377 204.769 261.75L204.769 103.25C204.769 96.6226 210.142 91.25 216.769 91.25L235.135 91.25Z" fill="rgb(255,255,255)" fill-rule="evenodd" />
</svg>
