<svg viewBox="0 0 61 61" xmlns="http://www.w3.org/2000/svg" xmlns:xlink="http://www.w3.org/1999/xlink" width="61.000000" height="61.000000" fill="none" customFrame="#000000">
	<path id="Pause" d="M30.5 0C47.3447 0 61 13.6553 61 30.5C61 47.3447 47.3447 61 30.5 61C13.6553 61 0 47.3447 0 30.5C0 13.6553 13.6553 0 30.5 0ZM27.1414 17.25C27.1414 16.1454 26.2459 15.25 25.1414 15.25L22.061 15.25C20.9564 15.25 20.061 16.1454 20.061 17.25L20.061 43.75C20.061 44.8546 20.9564 45.75 22.061 45.75L25.1414 45.75C26.2459 45.75 27.1414 44.8546 27.1414 43.75L27.1414 17.25ZM39.3021 15.25C40.4067 15.25 41.3021 16.1454 41.3021 17.25L41.3021 43.75C41.3021 44.8546 40.4067 45.75 39.3021 45.75L36.2217 45.75C35.1172 45.75 34.2217 44.8546 34.2217 43.75L34.2217 17.25C34.2217 16.1454 35.1172 15.25 36.2217 15.25L39.3021 15.25Z" opacity="0" fill="rgb(255,255,255)" fill-rule="evenodd" />
</svg>
