<svg viewBox="0 0 53 53" xmlns="http://www.w3.org/2000/svg" xmlns:xlink="http://www.w3.org/1999/xlink" width="53.000000" height="53.000000" fill="none" customFrame="#000000">
	<path id="Play" d="M53 26.5C53 11.8645 41.1355 0 26.5 0C11.8645 0 0 11.8645 0 26.5C0 41.1355 11.8645 53 26.5 53C41.1355 53 53 41.1355 53 26.5ZM28.3539 32.7079C31.3281 30.8204 35.8643 28.6518 38.4973 27.4422C39.291 27.0775 39.2911 25.923 38.4974 25.5583C35.8643 24.3487 31.3281 22.18 28.3539 20.2925C25.4091 18.4237 21.7744 15.421 19.6883 13.6356C19.0312 13.0732 18.0001 13.5388 18.0001 14.4036L18.0001 38.5968C18.0001 39.4617 19.0312 39.9272 19.6883 39.3649C21.7744 37.5794 25.4091 34.5767 28.3539 32.7079Z" fill="rgb(255,255,255)" fill-rule="evenodd" />
</svg>
