<svg viewBox="0 0 365 365" xmlns="http://www.w3.org/2000/svg" xmlns:xlink="http://www.w3.org/1999/xlink" width="365.000000" height="365.000000" fill="none" customFrame="#000000">
	<path id="Play" d="M365 182.5C365 81.708 283.292 0 182.5 0C81.708 0 0 81.708 0 182.5C0 283.292 81.708 365 182.5 365C283.292 365 365 283.292 365 182.5ZM195.267 225.253C222.046 208.258 267.21 187.955 277.436 183.427C278.235 183.073 278.235 181.93 277.436 181.577C267.21 177.048 222.046 156.745 195.267 139.75C168.564 122.804 133.623 92.3186 125.637 85.2595C124.989 84.6867 123.963 85.1468 123.963 86.0117L123.963 278.992C123.963 279.857 124.989 280.317 125.637 279.744C133.623 272.685 168.564 242.199 195.267 225.253Z" fill="rgb(255,255,255)" fill-rule="evenodd" />
</svg>
